<svg xmlns="http://www.w3.org/2000/svg" xmlns:xlink="http://www.w3.org/1999/xlink" width="100" height="100" viewBox="0 0 1000 1000">
  <defs>
    <clipPath id="clip-square-logo">
      <rect width="1000" height="1000"/>
    </clipPath>
  </defs>
  <g id="square-logo" clip-path="url(#clip-square-logo)">
    <g id="Subtraction_1" data-name="Subtraction 1" transform="translate(77.039 76.616)" fill="#fff">
      <path d="M 452.7767639160156 845.7555541992188 L 0.7052978277206421 452.7767944335938 L 393.68505859375 0.7053307294845581 L 845.7554931640625 393.6850891113281 L 452.7767639160156 845.7555541992188 Z M 395.586181640625 27.29466247558594 L 395.2581787109375 27.6719970703125 L 27.8646297454834 450.3092041015625 L 27.53663063049316 450.6865539550781 L 27.91396331787109 451.0145568847656 L 450.5513000488281 818.4080810546875 L 450.9286193847656 818.736083984375 L 451.2566223144531 818.3587646484375 L 818.6502075195313 395.721435546875 L 818.9782104492188 395.3441162109375 L 818.600830078125 395.01611328125 L 395.9635314941406 27.6226634979248 L 395.586181640625 27.29466247558594 Z" stroke="none"/>
      <path d="M 452.7274169921875 845.0501098632813 L 845.0501098632813 393.7344360351563 L 393.7344055175781 1.410768151283264 L 1.410735249519348 452.7274475097656 L 452.7274169921875 845.0501098632813 M 395.536865234375 26.58921813964844 L 396.2916259765625 27.24532890319824 L 818.928955078125 394.6387634277344 L 819.6836547851563 395.2947692871094 L 819.0275268554688 396.049560546875 L 451.6339721679688 818.6868896484375 L 450.9779663085938 819.4415283203125 L 450.2231750488281 818.7854614257813 L 27.58585166931152 451.3918762207031 L 26.83118629455566 450.7358703613281 L 27.48729705810547 449.9811096191406 L 394.880859375 27.34388542175293 L 395.536865234375 26.58921813964844 M 452.8254089355469 846.461669921875 L 452.8260803222656 846.4608764648438 L -3.672960156109184e-05 452.8261108398438 L 393.6357421875 -3.85199655283941e-06 L 846.4608764648438 393.6357727050781 L 452.8260803222656 846.4608764648438 L 452.8254089355469 846.461669921875 Z M 395.6355285644531 27.99999618530273 L 28.24196243286133 450.63720703125 L 450.8793029785156 818.03076171875 L 818.2728271484375 395.3934326171875 L 395.6355285644531 27.99999618530273 Z" stroke="none"/>
    </g>
    <text id="A" transform="translate(284 444)" fill="#fff" stroke="#000" stroke-width="1" font-size="250" font-family="Cambria"><tspan x="0" y="0">A</tspan></text>
    <line id="Line_1" data-name="Line 1" y1="101" x2="90" transform="translate(458.5 437.5)" fill="none" stroke="#fff" stroke-width="5"/>
    <text id="V" transform="translate(567 676)" fill="#f8f8f8" stroke="#000" stroke-width="1" font-size="250" font-family="Cambria"><tspan x="0" y="0">V</tspan></text>
  </g>
</svg>
